STARTFONT 2.1
FONT -DEC-Present Bullets-Medium-R-Normal--12-120-75-75-P-154-DEC-FontSpecific
SIZE 12 75 75
FONTBOUNDINGBOX 17 11 0 -1

STARTPROPERTIES 10
X_HEIGHT 8
COPYRIGHT "Copyright 1990,  Digital Equipment Corporation Created by Loree Nelson, The Artis Consultancy"
POINT_SIZE 120
WEIGHT 10
RESOLUTION_X 75
RESOLUTION_Y 75
QUAD_WIDTH 10
DEFAULT_CHAR 0
FONT_DESCENT 2
FONT_ASCENT 10
ENDPROPERTIES

CHARS 59

STARTCHAR space
ENCODING 32
SWIDTH 250 0
DWIDTH 3 0
BBX 1 1 0 0
BITMAP
00
ENDCHAR

STARTCHAR A
ENCODING 65
SWIDTH 704 0
DWIDTH 8 0
BBX 6 8 0 1
BITMAP
0C
08
FC
94
B4
B4
84
FC
ENDCHAR

STARTCHAR B
ENCODING 66
SWIDTH 616 0
DWIDTH 7 0
BBX 7 9 0 0
BITMAP
04
0E
0C
1C
18
50
F0
60
20
ENDCHAR

STARTCHAR C
ENCODING 67
SWIDTH 740 0
DWIDTH 9 0
BBX 7 9 0 0
BITMAP
80
40
30
08
06
08
30
40
80
ENDCHAR

STARTCHAR D
ENCODING 68
SWIDTH 953 0
DWIDTH 11 0
BBX 11 10 0 0
BITMAP
0400
0400
0E00
0A00
F1E0
4040
3180
1100
1F00
3180
ENDCHAR

STARTCHAR E
ENCODING 69
SWIDTH 1048 0
DWIDTH 13 0
BBX 11 10 0 0
BITMAP
0400
0400
0E00
0E00
FFE0
7FC0
3F80
1F00
3F80
3180
ENDCHAR

STARTCHAR F
ENCODING 70
SWIDTH 732 0
DWIDTH 9 0
BBX 9 9 0 0
BITMAP
0800
0C00
FE00
FF00
FF80
FF00
FE00
0C00
0800
ENDCHAR

STARTCHAR G
ENCODING 71
SWIDTH 732 0
DWIDTH 9 0
BBX 9 9 0 0
BITMAP
0800
0C00
FA00
8100
8080
8100
FA00
0C00
0800
ENDCHAR

STARTCHAR H
ENCODING 72
SWIDTH 1000 0
DWIDTH 12 0
BBX 8 2 6 1
BITMAP
0F
FF
ENDCHAR

STARTCHAR I
ENCODING 73
SWIDTH 787 0
DWIDTH 9 0
BBX 7 9 0 0
BITMAP
C0
F0
38
1C
0C
0C
06
06
06
ENDCHAR

STARTCHAR J
ENCODING 74
SWIDTH 756 0
DWIDTH 9 0
BBX 6 10 0 -1
BITMAP
80
44
48
30
30
30
30
48
48
04
ENDCHAR

STARTCHAR K
ENCODING 75
SWIDTH 935 0
DWIDTH 11 0
BBX 9 10 0 0
BITMAP
C180
6300
3600
1400
1C00
1C00
1400
3600
6300
C180
ENDCHAR

STARTCHAR L
ENCODING 76
SWIDTH 1000 0
DWIDTH 12 0
BBX 10 9 0 0
BITMAP
7000
F800
D400
6A00
2500
1280
0940
06C0
01C0
ENDCHAR

STARTCHAR M
ENCODING 77
SWIDTH 1440 0
DWIDTH 17 0
BBX 14 8 1 -1
BITMAP
0FC0
3FF0
7FF8
FCFC
F87C
3CF0
7FF8
7FF8
ENDCHAR

STARTCHAR N
ENCODING 78
SWIDTH 1292 0
DWIDTH 16 0
BBX 12 8 0 0
BITMAP
7FE0
FFF0
FFF0
DFB0
3FC0
70E0
7FE0
7FE0
ENDCHAR

STARTCHAR O
ENCODING 79
SWIDTH 1488 0
DWIDTH 18 0
BBX 16 8 1 0
BITMAP
3FFF
703E
B140
B1C0
D8C0
D740
D0E0
E060
ENDCHAR

STARTCHAR P
ENCODING 80
SWIDTH 1292 0
DWIDTH 16 0
BBX 14 7 1 1
BITMAP
0F00
F3FC
C6F8
FEC0
C580
FF80
0300
ENDCHAR

STARTCHAR Q
ENCODING 81
SWIDTH 844 0
DWIDTH 10 0
BBX 8 9 0 0
BITMAP
20
30
10
98
FF
98
10
30
20
ENDCHAR

STARTCHAR R
ENCODING 82
SWIDTH 1195 0
DWIDTH 14 0
BBX 9 9 0 0
BITMAP
3E00
4100
4100
7F00
FF80
BE80
FF80
4100
4100
ENDCHAR

STARTCHAR S
ENCODING 83
SWIDTH 1376 0
DWIDTH 17 0
BBX 15 8 0 0
BITMAP
FFFE
C006
B01A
8822
8FE2
9012
A00A
FFFE
ENDCHAR

STARTCHAR T
ENCODING 84
SWIDTH 1098 0
DWIDTH 13 0
BBX 11 11 0 -1
BITMAP
4040
BBA0
7FC0
B1A0
2480
2480
2280
3080
1F00
1F00
1100
ENDCHAR

STARTCHAR U
ENCODING 85
SWIDTH 992 0
DWIDTH 12 0
BBX 11 10 0 0
BITMAP
0E00
5120
2080
AAA0
2480
1500
1500
1100
1F00
0E00
ENDCHAR

STARTCHAR V
ENCODING 86
SWIDTH 1175 0
DWIDTH 14 0
BBX 11 9 0 0
BITMAP
7F00
4100
4100
4100
7F00
7F00
3EC0
7F40
FF60
ENDCHAR

STARTCHAR W
ENCODING 87
SWIDTH 790 0
DWIDTH 9 0
BBX 7 9 0 0
BITMAP
38
44
EE
9A
8A
8A
8A
4C
38
ENDCHAR

STARTCHAR X
ENCODING 88
SWIDTH 860 0
DWIDTH 10 0
BBX 9 9 0 0
BITMAP
FF80
F780
0380
0180
0080
0180
0380
F780
FF80
ENDCHAR

STARTCHAR Y
ENCODING 89
SWIDTH 804 0
DWIDTH 10 0
BBX 10 9 0 0
BITMAP
0400
0600
F900
8280
FD40
8280
F900
0600
0400
ENDCHAR

STARTCHAR Z
ENCODING 90
SWIDTH 1220 0
DWIDTH 15 0
BBX 10 9 1 0
BITMAP
8000
9000
4600
2380
1FC0
1FC0
3E00
7000
8000
ENDCHAR

STARTCHAR bracketleft
ENCODING 91
SWIDTH 1260 0
DWIDTH 15 0
BBX 12 5 0 1
BITMAP
0100
00C0
FFF0
00C0
0100
ENDCHAR

STARTCHAR backslash
ENCODING 92
SWIDTH 915 0
DWIDTH 11 0
BBX 9 9 0 0
BITMAP
1C00
4900
2A00
BE80
FF80
BE80
2A00
4900
1C00
ENDCHAR

STARTCHAR bracketright
ENCODING 93
SWIDTH 1292 0
DWIDTH 16 0
BBX 13 5 0 1
BITMAP
9FF8
BF80
BF80
BF80
1F00
ENDCHAR

STARTCHAR asciicircum
ENCODING 94
SWIDTH 940 0
DWIDTH 11 0
BBX 7 1 2 3
BITMAP
FE
ENDCHAR

STARTCHAR underscore
ENCODING 95
SWIDTH 1164 0
DWIDTH 14 0
BBX 11 1 1 3
BITMAP
FFE0
ENDCHAR

STARTCHAR grave
ENCODING 96
SWIDTH 720 0
DWIDTH 9 0
BBX 6 5 0 2
BITMAP
78
84
84
84
78
ENDCHAR

STARTCHAR a
ENCODING 97
SWIDTH 720 0
DWIDTH 9 0
BBX 6 5 0 2
BITMAP
78
FC
FC
FC
78
ENDCHAR

STARTCHAR b
ENCODING 98
SWIDTH 1272 0
DWIDTH 15 0
BBX 12 6 1 1
BITMAP
00E0
09F0
DDF0
DDF0
09F0
00E0
ENDCHAR

STARTCHAR c
ENCODING 99
SWIDTH 556 0
DWIDTH 7 0
BBX 5 9 0 0
BITMAP
C0
E0
F0
F8
F8
F8
F0
E0
C0
ENDCHAR

STARTCHAR d
ENCODING 100
SWIDTH 616 0
DWIDTH 7 0
BBX 5 9 0 0
BITMAP
40
20
10
08
08
18
30
60
C0
ENDCHAR

STARTCHAR e
ENCODING 101
SWIDTH 956 0
DWIDTH 11 0
BBX 9 9 1 0
BITMAP
1800
0600
0180
0100
0200
0C00
1800
7000
E000
ENDCHAR

STARTCHAR f
ENCODING 102
SWIDTH 932 0
DWIDTH 11 0
BBX 10 10 0 0
BITMAP
0800
0C00
0C00
1E00
1A00
3B00
3900
7180
7080
FFC0
ENDCHAR

STARTCHAR g
ENCODING 103
SWIDTH 956 0
DWIDTH 11 0
BBX 11 8 1 1
BITMAP
0400
0E00
0E00
1F00
3F80
3F80
7FC0
FFE0
ENDCHAR

STARTCHAR h
ENCODING 104
SWIDTH 620 0
DWIDTH 7 0
BBX 7 9 0 0
BITMAP
10
38
38
7C
FE
7C
38
38
10
ENDCHAR

STARTCHAR i
ENCODING 105
SWIDTH 620 0
DWIDTH 7 0
BBX 7 9 0 0
BITMAP
10
38
28
64
E6
64
28
38
10
ENDCHAR

STARTCHAR j
ENCODING 106
SWIDTH 1023 0
DWIDTH 12 0
BBX 12 7 0 2
BITMAP
0600
1F80
3FC0
FFF0
3FC0
1F80
0600
ENDCHAR

STARTCHAR k
ENCODING 107
SWIDTH 930 0
DWIDTH 11 0
BBX 9 9 1 0
BITMAP
0800
0800
1C00
3E00
FF80
3E00
1C00
0800
0800
ENDCHAR

STARTCHAR l
ENCODING 108
SWIDTH 548 0
DWIDTH 7 0
BBX 5 9 1 0
BITMAP
80
C0
E0
F0
F8
F0
E0
C0
80
ENDCHAR

STARTCHAR m
ENCODING 109
SWIDTH 896 0
DWIDTH 11 0
BBX 8 4 1 2
BITMAP
FF
7C
78
20
ENDCHAR

STARTCHAR n
ENCODING 110
SWIDTH 1000 0
DWIDTH 12 0
BBX 9 5 2 2
BITMAP
8000
7800
0780
0E00
1000
ENDCHAR

STARTCHAR o
ENCODING 111
SWIDTH 1000 0
DWIDTH 12 0
BBX 12 3 0 3
BITMAP
0300
FFC0
FFF0
ENDCHAR

STARTCHAR p
ENCODING 112
SWIDTH 1096 0
DWIDTH 13 0
BBX 12 4 0 2
BITMAP
1FF0
3FE0
7FC0
FF80
ENDCHAR

STARTCHAR q
ENCODING 113
SWIDTH 704 0
DWIDTH 8 0
BBX 8 10 0 0
BITMAP
0F
0F
0F
1E
1E
3C
3C
78
78
F8
ENDCHAR

STARTCHAR r
ENCODING 114
SWIDTH 1036 0
DWIDTH 12 0
BBX 12 10 1 0
BITMAP
0030
0060
0060
00E0
00C0
01C0
0180
0380
0380
FF00
ENDCHAR

STARTCHAR s
ENCODING 115
SWIDTH 1264 0
DWIDTH 15 0
BBX 12 10 2 0
BITMAP
0010
0010
0010
0030
0070
00F0
01F0
03F0
0FF0
FFF0
ENDCHAR

STARTCHAR t
ENCODING 116
SWIDTH 884 0
DWIDTH 11 0
BBX 8 7 0 1
BITMAP
FE
81
81
81
81
81
7F
ENDCHAR

STARTCHAR u
ENCODING 117
SWIDTH 844 0
DWIDTH 10 0
BBX 7 6 0 2
BITMAP
FE
FE
FE
FE
FE
FE
ENDCHAR

STARTCHAR v
ENCODING 118
SWIDTH 1176 0
DWIDTH 14 0
BBX 11 5 0 2
BITMAP
FFE0
FFE0
FFE0
FFE0
FFE0
ENDCHAR

STARTCHAR w
ENCODING 119
SWIDTH 1252 0
DWIDTH 15 0
BBX 12 6 0 1
BITMAP
F750
F750
F750
F750
F750
F750
ENDCHAR

STARTCHAR x
ENCODING 120
SWIDTH 1244 0
DWIDTH 15 0
BBX 13 7 0 1
BITMAP
0040
FFE0
FFF0
FFF8
FFF0
FFE0
0040
ENDCHAR

STARTCHAR y
ENCODING 121
SWIDTH 864 0
DWIDTH 10 0
BBX 8 6 0 1
BITMAP
FD
9D
9D
9D
9D
FD
ENDCHAR

STARTCHAR z
ENCODING 122
SWIDTH 704 0
DWIDTH 8 0
BBX 6 6 0 1
BITMAP
FC
84
84
84
84
FC
ENDCHAR
ENDFONT
